<mxfile host="app.diagrams.net" modified="2021-09-14T08:06:44.942Z" agent="5.0 (Windows NT 10.0; Win64; x64) AppleWebKit/537.36 (KHTML, like Gecko) Chrome/93.0.4577.63 Safari/537.36" etag="0cHhkcLo4qJbHSTQyWb8" version="15.2.5" type="github">
  <diagram id="KhsaMZlGXoqbmdczmaeu" name="Page-1">
    <mxGraphModel dx="1422" dy="762" grid="1" gridSize="10" guides="1" tooltips="1" connect="1" arrows="1" fold="1" page="1" pageScale="1" pageWidth="827" pageHeight="1169" math="0" shadow="0">
      <root>
        <mxCell id="0" />
        <mxCell id="1" parent="0" />
        <mxCell id="l1tneyfTLIC7VnXmdMOF-2" value="微任务队列" style="swimlane;" vertex="1" parent="1">
          <mxGeometry x="70" y="100" width="200" height="370" as="geometry" />
        </mxCell>
        <mxCell id="l1tneyfTLIC7VnXmdMOF-5" value="p1.then 的回调 promise状态 fulfilled&lt;br&gt;console.log(1);&lt;br&gt;return new Promise((res) =&amp;gt; {&lt;br&gt;&lt;span style=&quot;white-space: pre&quot;&gt;	&lt;/span&gt;res();&lt;br&gt;})" style="rounded=0;whiteSpace=wrap;html=1;align=left;" vertex="1" parent="l1tneyfTLIC7VnXmdMOF-2">
          <mxGeometry y="20" width="200" height="120" as="geometry" />
        </mxCell>
        <mxCell id="l1tneyfTLIC7VnXmdMOF-9" value="p3.then 的回调 promise状态 fulfilled&lt;br&gt;console.log(3);" style="rounded=0;whiteSpace=wrap;html=1;align=left;" vertex="1" parent="l1tneyfTLIC7VnXmdMOF-2">
          <mxGeometry y="140" width="200" height="120" as="geometry" />
        </mxCell>
        <mxCell id="l1tneyfTLIC7VnXmdMOF-3" value="宏任务队列" style="swimlane;" vertex="1" parent="1">
          <mxGeometry x="340" y="100" width="200" height="370" as="geometry" />
        </mxCell>
        <mxCell id="l1tneyfTLIC7VnXmdMOF-4" value="let p1 = Promise.resolve()&lt;br&gt;let p2 = p1.then();&lt;br&gt;p2.then();&lt;br&gt;let p3 = Promise.resolve()&lt;br&gt;p4 = p3.then()&lt;br&gt;p5 = p4.then()&lt;br&gt;p6 = p5.then()&lt;br&gt;p6.then()" style="rounded=0;whiteSpace=wrap;html=1;align=left;" vertex="1" parent="l1tneyfTLIC7VnXmdMOF-3">
          <mxGeometry y="240" width="200" height="130" as="geometry" />
        </mxCell>
        <mxCell id="l1tneyfTLIC7VnXmdMOF-6" value="" style="shape=process;whiteSpace=wrap;html=1;backgroundOutline=1;align=left;" vertex="1" parent="1">
          <mxGeometry x="50" y="530" width="1080" height="170" as="geometry" />
        </mxCell>
        <mxCell id="l1tneyfTLIC7VnXmdMOF-7" value="p2.then 的回调 promise状态 pedding&lt;br&gt;console.log(2);" style="rounded=0;whiteSpace=wrap;html=1;align=left;" vertex="1" parent="1">
          <mxGeometry x="170" y="555" width="200" height="120" as="geometry" />
        </mxCell>
        <mxCell id="l1tneyfTLIC7VnXmdMOF-10" value="p4.then 的回调 promise状态 pedding&lt;br&gt;console.log(4);" style="rounded=0;whiteSpace=wrap;html=1;align=left;" vertex="1" parent="1">
          <mxGeometry x="380" y="555" width="200" height="120" as="geometry" />
        </mxCell>
        <mxCell id="l1tneyfTLIC7VnXmdMOF-11" value="p5.then 的回调 promise状态 pedding&lt;br&gt;console.log(5);" style="rounded=0;whiteSpace=wrap;html=1;align=left;" vertex="1" parent="1">
          <mxGeometry x="590" y="555" width="200" height="120" as="geometry" />
        </mxCell>
        <mxCell id="l1tneyfTLIC7VnXmdMOF-12" value="p6.then 的回调 promise状态 pedding&lt;br&gt;console.log(6);" style="rounded=0;whiteSpace=wrap;html=1;align=left;" vertex="1" parent="1">
          <mxGeometry x="800" y="555" width="200" height="120" as="geometry" />
        </mxCell>
      </root>
    </mxGraphModel>
  </diagram>
</mxfile>
